<svg xmlns="http://www.w3.org/2000/svg" width="45.249" height="51.713" viewBox="0 0 45.249 51.713"><defs><style>.a{fill:#91dcc2;}</style></defs><path class="a" d="M45.249,36.361V2.424A2.418,2.418,0,0,0,42.825,0H9.7A9.7,9.7,0,0,0,0,9.7V42.017a9.7,9.7,0,0,0,9.7,9.7H42.825a2.418,2.418,0,0,0,2.424-2.424V47.673a2.443,2.443,0,0,0-.9-1.889,22.524,22.524,0,0,1,0-7.545A2.407,2.407,0,0,0,45.249,36.361ZM12.928,13.534a.608.608,0,0,1,.606-.606H34.947a.608.608,0,0,1,.606.606v2.02a.608.608,0,0,1-.606.606H13.534a.608.608,0,0,1-.606-.606Zm0,6.464a.608.608,0,0,1,.606-.606H34.947a.608.608,0,0,1,.606.606v2.02a.608.608,0,0,1-.606.606H13.534a.608.608,0,0,1-.606-.606Zm25.594,25.25H9.7a3.232,3.232,0,1,1,0-6.464H38.522A36.362,36.362,0,0,0,38.522,45.249Z"/></svg>