<svg xmlns="http://www.w3.org/2000/svg" width="131.35" height="191.059" viewBox="0 0 131.35 191.059"><defs><style>.a{fill:#fff;}</style></defs><path class="a" d="M35.845,169.543a11.946,11.946,0,0,0,2,6.6l6.377,9.586a11.937,11.937,0,0,0,9.941,5.329H77.191a11.937,11.937,0,0,0,9.941-5.329l6.377-9.586a11.937,11.937,0,0,0,2-6.6l.015-14.311h-59.7l.019,14.311ZM0,65.675a65.309,65.309,0,0,0,16.255,43.2c6.165,7.034,15.807,21.729,19.482,34.125.015.1.026.194.041.291H95.572c.015-.1.026-.19.041-.291,3.676-12.4,13.318-27.091,19.482-34.125A65.64,65.64,0,0,0,65.47,0C27.4.116,0,30.961,0,65.675ZM65.675,35.823A29.887,29.887,0,0,0,35.823,65.675a5.97,5.97,0,1,1-11.941,0A41.839,41.839,0,0,1,65.675,23.882a5.97,5.97,0,0,1,0,11.941Z" transform="translate(0 0)"/></svg>