<svg xmlns="http://www.w3.org/2000/svg" width="78.474" height="42.804" viewBox="0 0 78.474 42.804"><defs><style>.a{fill:#91dcc2;}</style></defs><path class="a" d="M79.974,16.134a7.155,7.155,0,0,1-7.134,7.134,6.063,6.063,0,0,1-1.819-.25l-12.7,12.663a6.3,6.3,0,0,1,.25,1.855,7.134,7.134,0,1,1-14.268,0,6.3,6.3,0,0,1,.25-1.855l-9.1-9.1a7.014,7.014,0,0,1-3.71,0L15.518,42.851a6.063,6.063,0,0,1,.25,1.819,7.134,7.134,0,1,1-7.134-7.134,6.063,6.063,0,0,1,1.819.25l16.265-16.23a6.3,6.3,0,0,1-.25-1.855,7.134,7.134,0,1,1,14.268,0,6.3,6.3,0,0,1-.25,1.855l9.1,9.1a7.014,7.014,0,0,1,3.71,0l12.663-12.7a6.062,6.062,0,0,1-.25-1.819,7.134,7.134,0,1,1,14.268,0Z" transform="translate(-1.5 -9)"/></svg>