<svg xmlns="http://www.w3.org/2000/svg" width="82.14" height="42.713" viewBox="0 0 82.14 42.713"><defs><style>.a{fill:#91dcc2;}</style></defs><path class="a" d="M70.641,8.64H0V51.353H82.14V8.64ZM78.855,40.3a11.007,11.007,0,0,0-7.769,7.769H11.054A11.012,11.012,0,0,0,3.286,40.3v-20.6a11.012,11.012,0,0,0,7.769-7.769H71.124a11.511,11.511,0,0,0,7.731,7.731V40.3ZM44.546,33.372c-.378-.23-.191-.442-1.833-.637v4.759l.9-.168a2.393,2.393,0,0,0,1.83-2.384A1.758,1.758,0,0,0,44.546,33.372Zm-7.394-7.766a1.764,1.764,0,0,0,1,1.643,6.645,6.645,0,0,0,1.276.475v-4.5a3.933,3.933,0,0,0-1.263.517A2.123,2.123,0,0,0,37.152,25.607ZM41.07,13.568C32.9,13.568,26.285,20.925,26.285,30S32.9,46.425,41.07,46.425,55.855,39.066,55.855,30,49.237,13.568,41.07,13.568ZM47.4,39.285a9.744,9.744,0,0,1-4.689,1.756v2.1H39.427V41a8.449,8.449,0,0,1-4.252-1.372,6.111,6.111,0,0,1-2.32-4.707h4.087c.133,0,.393,1.316.78,1.781s.974.534,1.7.736V31.848a13.11,13.11,0,0,1-4.166-1.495,5,5,0,0,1-2.072-4.436,5.887,5.887,0,0,1,2.027-4.574,7.511,7.511,0,0,1,4.211-1.718V16.854h3.286v2.858a8.065,8.065,0,0,1,3.778,1.768c1.543,1.145,2.628,1.945,2.7,5.231H45.077a3.069,3.069,0,0,0-1.925-2.872,3.347,3.347,0,0,1-.439-.34v5.163l1.482.286a10.753,10.753,0,0,1,3.818,1.487,4.93,4.93,0,0,1,1.7,4.184A6.011,6.011,0,0,1,47.4,39.285Z" transform="translate(0 -8.64)"/></svg>