<svg xmlns="http://www.w3.org/2000/svg" width="169.602" height="136.594" viewBox="0 0 169.602 136.594"><defs><style>.a{fill:#fff;}</style></defs><path class="a" d="M164.3,118.328H21.2V10.191A5.5,5.5,0,0,0,15.9,4.5H5.3A5.5,5.5,0,0,0,0,10.191V129.711C0,136,4.747,141.094,10.6,141.094H164.3a5.5,5.5,0,0,0,5.3-5.691V124.019A5.5,5.5,0,0,0,164.3,118.328ZM153.7,15.883H114.594c-7.082,0-10.63,9.2-5.621,14.574l10.733,11.525-24.3,26.1-24.3-26.1a10.089,10.089,0,0,0-14.989,0L33.354,66.419a5.993,5.993,0,0,0,0,8.05l7.493,8.046a5.046,5.046,0,0,0,7.5,0L63.6,66.127l24.3,26.1a10.089,10.089,0,0,0,14.989,0l31.8-34.148L145.427,69.6C150.436,74.981,159,71.171,159,63.566V21.574A5.5,5.5,0,0,0,153.7,15.883Z" transform="translate(0 -4.5)"/></svg>