<svg xmlns="http://www.w3.org/2000/svg" width="70" height="59.265" viewBox="0 0 70 59.265"><defs><style>.a{fill:#fff;}</style></defs><path class="a" d="M0,29.633V44.449a3.6,3.6,0,0,0,3.5,3.7H7V25.928H3.5A3.6,3.6,0,0,0,0,29.633Zm50.75-18.52H38.5V3.7a3.506,3.506,0,1,0-7,0v7.408H19.25a9.013,9.013,0,0,0-8.75,9.26V51.857a7.219,7.219,0,0,0,7,7.408h35a7.219,7.219,0,0,0,7-7.408V20.372A9.013,9.013,0,0,0,50.75,11.112ZM28,48.153H21v-3.7h7Zm-3.5-13.89a4.638,4.638,0,0,1,0-9.26,4.638,4.638,0,0,1,0,9.26Zm14,13.89h-7v-3.7h7Zm10.5,0H42v-3.7h7Zm-3.5-13.89a4.638,4.638,0,1,1,4.375-4.63A4.507,4.507,0,0,1,45.5,34.263Zm21-8.334H63V48.153h3.5a3.6,3.6,0,0,0,3.5-3.7V29.633A3.6,3.6,0,0,0,66.5,25.928Z"/></svg>