<svg xmlns="http://www.w3.org/2000/svg" width="50.107" height="57.265" viewBox="0 0 50.107 57.265"><defs><style>.a{fill:#fff;}</style></defs><path class="a" d="M25.054,57.265a7.157,7.157,0,0,0,7.155-7.158H17.9A7.157,7.157,0,0,0,25.054,57.265Zm24.09-16.744c-2.161-2.322-6.2-5.815-6.2-17.257A17.662,17.662,0,0,0,28.63,5.91V3.579a3.577,3.577,0,1,0-7.154,0V5.91A17.662,17.662,0,0,0,7.167,23.264c0,11.442-4.043,14.935-6.2,17.257A3.5,3.5,0,0,0,0,42.949a3.582,3.582,0,0,0,3.59,3.579H46.517a3.582,3.582,0,0,0,3.59-3.579,3.493,3.493,0,0,0-.963-2.428Z"/></svg>