<svg xmlns="http://www.w3.org/2000/svg" width="216.783" height="173.427" viewBox="0 0 216.783 173.427"><defs><style>.a{fill:#fff;}</style></defs><path class="a" d="M86.713,113.811h-.007c0-5.481.454-2.957-28.808-61.482a16.271,16.271,0,0,0-29.086,0C-.7,111.356.007,108.5.007,113.811H0c0,14.965,19.412,27.1,43.357,27.1S86.713,128.776,86.713,113.811Zm-43.357-54.2,24.388,48.776H18.969Zm173.42,54.2c0-5.481.454-2.957-28.809-61.482a16.271,16.271,0,0,0-29.086,0c-29.51,59.026-28.805,56.174-28.805,61.482h-.007c0,14.965,19.412,27.1,43.357,27.1s43.357-12.133,43.357-27.1Zm-67.738-5.42,24.388-48.776,24.388,48.776Zm29.808,43.357H119.231V51.909a27.119,27.119,0,0,0,15.713-19.392h43.9a5.418,5.418,0,0,0,5.42-5.42V16.259a5.418,5.418,0,0,0-5.42-5.42h-48.9a26.855,26.855,0,0,0-43.113,0h-48.9a5.418,5.418,0,0,0-5.42,5.42V27.1a5.418,5.418,0,0,0,5.42,5.42h43.9A27.118,27.118,0,0,0,97.553,51.909v99.839H37.937a5.418,5.418,0,0,0-5.42,5.42v10.839a5.418,5.418,0,0,0,5.42,5.42H178.846a5.418,5.418,0,0,0,5.42-5.42V157.168A5.418,5.418,0,0,0,178.846,151.748Z"/></svg>