<svg xmlns="http://www.w3.org/2000/svg" width="80.08" height="79.817" viewBox="0 0 80.08 79.817"><defs><style>.a{fill:#003853;}</style></defs><path class="a" d="M40.04.06a5.816,5.816,0,0,0-1.792,11.348l-2.105,8.605H8.195A8.2,8.2,0,0,0,0,28.208V71.682a8.2,8.2,0,0,0,8.195,8.195H71.886a8.2,8.2,0,0,0,8.195-8.195V28.208a8.2,8.2,0,0,0-8.195-8.195H43.847l-2.055-8.592A5.816,5.816,0,0,0,40.037.06ZM13.123,26.223H66.964a6.654,6.654,0,0,1,6.653,6.653V66.634a6.653,6.653,0,0,1-6.653,6.653H13.123A6.653,6.653,0,0,1,6.47,66.634V32.876A6.654,6.654,0,0,1,13.123,26.223Zm10.858,7.714A15.265,15.265,0,1,0,39.246,49.2,15.265,15.265,0,0,0,23.981,33.937Zm32.509,0A15.265,15.265,0,1,0,71.755,49.2,15.265,15.265,0,0,0,56.49,33.937Zm-32.509,3.57a11.7,11.7,0,1,1-11.7,11.7,11.7,11.7,0,0,1,11.7-11.7Zm32.509,0a11.7,11.7,0,1,1-11.7,11.7,11.7,11.7,0,0,1,11.7-11.7ZM23.981,43.057a6.15,6.15,0,1,0,6.15,6.15A6.15,6.15,0,0,0,23.981,43.057Zm32.509,0a6.15,6.15,0,1,0,6.15,6.15,6.15,6.15,0,0,0-6.15-6.15ZM33.377,64.745v7.2h2.356v-7.2Zm3.594,0v7.2h2.352v-7.2Zm3.59,0v7.2h2.356v-7.2Zm3.594,0v7.2H46.51v-7.2Zm3.594.1v7.007a3.6,3.6,0,0,0,2.766-3.5v0A3.6,3.6,0,0,0,47.748,64.845Zm-15.609.093A3.6,3.6,0,0,0,29.7,68.345v0a3.6,3.6,0,0,0,2.439,3.407V64.938Z" transform="translate(0 -0.06)"/></svg>